<svg xmlns="http://www.w3.org/2000/svg" xmlns:xlink="http://www.w3.org/1999/xlink" aria-hidden="true" role="img" class="iconify iconify--logos" width="32" height="32" preserveAspectRatio="xMidYMid meet" viewBox="0 0 256 256"><rect width="256" height="256" fill="none"></rect><circle cx="128" cy="128" r="48" fill="#61DAFB"></circle><path stroke="#61DAFB" stroke-linecap="round" stroke-linejoin="round" stroke-width="16" d="M128 80c-19.9 0-36 16.1-36 36s16.1 36 36 36s36-16.1 36-36s-16.1-36-36-36Zm0-48c-19.9 0-36 16.1-36 36s16.1 36 36 36s36-16.1 36-36s-16.1-36-36-36Zm0 96c-19.9 0-36 16.1-36 36s16.1 36 36 36s36-16.1 36-36s-16.1-36-36-36Z" opacity="0.2"></path><ellipse cx="128" cy="128" rx="36" ry="8" fill="#61DAFB" opacity="0.3"></ellipse><ellipse cx="128" cy="128" rx="8" ry="36" fill="#61DAFB" opacity="0.3" transform="rotate(-45 128 128)"></ellipse><ellipse cx="128" cy="128" rx="8" ry="36" fill="#61DAFB" opacity="0.3" transform="rotate(45 128 128)"></ellipse></svg>
